<svg width="120" height="120" viewBox="0 0 120 120" fill="none" xmlns="http://www.w3.org/2000/svg">
<g id="driver">
<g id="Ellipse 7" filter="url(#filter0_d_117_807)">
<circle cx="58" cy="58" r="50" fill="#333333"/>
</g>
<g id="healthicons:truck-driver">
<g id="Vector">
<mask id="path-2-inside-1_117_807" fill="white">
<path fill-rule="evenodd" clip-rule="evenodd" d="M50.125 65.3125C50.125 64.9293 54.0765 62.25 58 62.25C61.9235 62.25 65.875 64.9301 65.875 65.3125C65.875 66.6775 65.7297 67.486 65.6072 67.9261C65.5258 68.2149 65.2555 68.375 64.9553 68.375H51.0446C50.7445 68.375 50.4741 68.2149 50.3927 67.9261C50.2702 67.486 50.125 66.6775 50.125 65.3125ZM56.6875 64.875C56.4554 64.875 56.2328 64.9672 56.0688 65.1313C55.9047 65.2954 55.8125 65.5179 55.8125 65.75C55.8125 65.9821 55.9047 66.2046 56.0688 66.3687C56.2328 66.5328 56.4554 66.625 56.6875 66.625H59.3125C59.5445 66.625 59.7671 66.5328 59.9312 66.3687C60.0953 66.2046 60.1875 65.9821 60.1875 65.75C60.1875 65.5179 60.0953 65.2954 59.9312 65.1313C59.7671 64.9672 59.5445 64.875 59.3125 64.875H56.6875ZM51.0332 73.8158C48.1195 72.9145 48.8545 71.3045 49.9657 70.125H66.2775C67.1665 71.2607 67.6433 72.7929 64.9562 73.7099C65.0661 74.6846 64.9698 75.6716 64.6737 76.6068C64.3775 77.542 63.8882 78.4045 63.2373 79.1383C62.5864 79.8722 61.7885 80.4611 60.8954 80.8668C60.0023 81.2726 59.0339 81.486 58.053 81.4934C57.0721 81.5008 56.1006 81.302 55.2015 80.9098C54.3024 80.5176 53.4957 79.9408 52.8338 79.2168C52.172 78.4928 51.6696 77.6378 51.3594 76.7072C51.0492 75.7766 50.9381 74.7912 51.0332 73.8149V73.8158ZM57.762 74.5C60.0737 74.5 61.8657 74.3775 63.2395 74.164C63.2846 74.8774 63.1836 75.5925 62.9426 76.2655C62.7017 76.9385 62.3258 77.5552 61.8381 78.0778C61.3503 78.6003 60.761 79.0178 60.1062 79.3046C59.4515 79.5914 58.745 79.7415 58.0302 79.7456C57.3154 79.7497 56.6072 79.6078 55.9492 79.3286C55.2912 79.0493 54.6971 78.6387 54.2034 78.1217C53.7097 77.6048 53.3267 76.9925 53.078 76.3223C52.8293 75.6521 52.72 74.9382 52.757 74.2244C54.0371 74.4011 55.6777 74.5 57.762 74.5V74.5ZM65.3648 87.275C64.5734 86.0402 63.484 85.0243 62.197 84.321C60.9099 83.6176 59.4667 83.2493 58 83.25C56.5327 83.2491 55.0888 83.6174 53.8012 84.3211C52.5137 85.0248 51.424 86.0412 50.6325 87.2768C50.3387 86.8243 49.8876 86.497 49.3663 86.358L47.6758 85.9056C47.1155 85.7554 46.5185 85.8339 46.016 86.1239C45.5136 86.4138 45.1469 86.8915 44.9966 87.4517L44.3176 89.9875C44.2432 90.265 44.2243 90.5544 44.2618 90.8393C44.2993 91.1241 44.3925 91.3988 44.5362 91.6475C44.6798 91.8963 44.8711 92.1144 45.099 92.2893C45.3269 92.4642 45.5871 92.5924 45.8646 92.6668L47.5542 93.12C47.8384 93.1966 48.1352 93.2148 48.4266 93.1736C48.7181 93.1324 48.9981 93.0326 49.25 92.8803C49.2507 93.1123 49.3435 93.3346 49.5081 93.4982C49.6727 93.6618 49.8955 93.7533 50.1276 93.7526C50.3597 93.7519 50.5819 93.6591 50.7455 93.4945C50.9091 93.3299 51.0007 93.1071 51 92.875V92C51 91.6666 51.0236 91.3385 51.0682 91.0174L55.6217 92.238C55.8331 92.6904 56.1691 93.0732 56.5904 93.3413C57.0116 93.6095 57.5006 93.7519 58 93.7519C58.4993 93.7519 58.9883 93.6095 59.4096 93.3413C59.8308 93.0732 60.1669 92.6904 60.3782 92.238L64.9317 91.0174C64.9763 91.3385 65 91.6666 65 92V92.875C64.9988 93.1071 65.0899 93.3301 65.2532 93.495C65.4164 93.6599 65.6385 93.7532 65.8706 93.7544C66.1027 93.7555 66.3257 93.6645 66.4906 93.5012C66.6555 93.3379 66.7488 93.1158 66.75 92.8837C67.24 93.1777 67.8455 93.2801 68.4413 93.12L70.1318 92.6676C70.4094 92.5933 70.6695 92.465 70.8974 92.2902C71.1254 92.1153 71.3166 91.8972 71.4603 91.6484C71.6039 91.3996 71.6972 91.125 71.7347 90.8401C71.7722 90.5553 71.7532 90.2659 71.6788 89.9884L70.999 87.4526C70.8487 86.8923 70.482 86.4147 69.9795 86.1247C69.4771 85.8348 68.88 85.7563 68.3197 85.9065L66.6292 86.3589C66.1092 86.4973 65.6588 86.8234 65.3648 87.2741V87.275ZM51.5276 89.3286C52.0003 88.1855 52.7671 87.1879 53.7502 86.4371C54.7334 85.6863 55.8977 85.2092 57.125 85.0543V88.6496C56.7328 88.7887 56.3793 89.0188 56.0933 89.3211C55.8074 89.6233 55.5972 89.989 55.48 90.3883L51.5276 89.3295V89.3286ZM64.4723 89.3286C63.9996 88.1855 63.2327 87.188 62.2496 86.4372C61.2665 85.6865 60.1022 85.2093 58.875 85.0543V88.6496C59.666 88.9296 60.2837 89.5771 60.52 90.3883L64.4723 89.3295V89.3286ZM58 92C58.232 92 58.4546 91.9078 58.6187 91.7437C58.7828 91.5796 58.875 91.3571 58.875 91.125C58.875 90.8929 58.7828 90.6704 58.6187 90.5063C58.4546 90.3422 58.232 90.25 58 90.25C57.7679 90.25 57.5453 90.3422 57.3813 90.5063C57.2172 90.6704 57.125 90.8929 57.125 91.125C57.125 91.3571 57.2172 91.5796 57.3813 91.7437C57.5453 91.9078 57.7679 92 58 92Z"/>
</mask>
<path fill-rule="evenodd" clip-rule="evenodd" d="M50.125 65.3125C50.125 64.9293 54.0765 62.25 58 62.25C61.9235 62.25 65.875 64.9301 65.875 65.3125C65.875 66.6775 65.7297 67.486 65.6072 67.9261C65.5258 68.2149 65.2555 68.375 64.9553 68.375H51.0446C50.7445 68.375 50.4741 68.2149 50.3927 67.9261C50.2702 67.486 50.125 66.6775 50.125 65.3125ZM56.6875 64.875C56.4554 64.875 56.2328 64.9672 56.0688 65.1313C55.9047 65.2954 55.8125 65.5179 55.8125 65.75C55.8125 65.9821 55.9047 66.2046 56.0688 66.3687C56.2328 66.5328 56.4554 66.625 56.6875 66.625H59.3125C59.5445 66.625 59.7671 66.5328 59.9312 66.3687C60.0953 66.2046 60.1875 65.9821 60.1875 65.75C60.1875 65.5179 60.0953 65.2954 59.9312 65.1313C59.7671 64.9672 59.5445 64.875 59.3125 64.875H56.6875ZM51.0332 73.8158C48.1195 72.9145 48.8545 71.3045 49.9657 70.125H66.2775C67.1665 71.2607 67.6433 72.7929 64.9562 73.7099C65.0661 74.6846 64.9698 75.6716 64.6737 76.6068C64.3775 77.542 63.8882 78.4045 63.2373 79.1383C62.5864 79.8722 61.7885 80.4611 60.8954 80.8668C60.0023 81.2726 59.0339 81.486 58.053 81.4934C57.0721 81.5008 56.1006 81.302 55.2015 80.9098C54.3024 80.5176 53.4957 79.9408 52.8338 79.2168C52.172 78.4928 51.6696 77.6378 51.3594 76.7072C51.0492 75.7766 50.9381 74.7912 51.0332 73.8149V73.8158ZM57.762 74.5C60.0737 74.5 61.8657 74.3775 63.2395 74.164C63.2846 74.8774 63.1836 75.5925 62.9426 76.2655C62.7017 76.9385 62.3258 77.5552 61.8381 78.0778C61.3503 78.6003 60.761 79.0178 60.1062 79.3046C59.4515 79.5914 58.745 79.7415 58.0302 79.7456C57.3154 79.7497 56.6072 79.6078 55.9492 79.3286C55.2912 79.0493 54.6971 78.6387 54.2034 78.1217C53.7097 77.6048 53.3267 76.9925 53.078 76.3223C52.8293 75.6521 52.72 74.9382 52.757 74.2244C54.0371 74.4011 55.6777 74.5 57.762 74.5V74.5ZM65.3648 87.275C64.5734 86.0402 63.484 85.0243 62.197 84.321C60.9099 83.6176 59.4667 83.2493 58 83.25C56.5327 83.2491 55.0888 83.6174 53.8012 84.3211C52.5137 85.0248 51.424 86.0412 50.6325 87.2768C50.3387 86.8243 49.8876 86.497 49.3663 86.358L47.6758 85.9056C47.1155 85.7554 46.5185 85.8339 46.016 86.1239C45.5136 86.4138 45.1469 86.8915 44.9966 87.4517L44.3176 89.9875C44.2432 90.265 44.2243 90.5544 44.2618 90.8393C44.2993 91.1241 44.3925 91.3988 44.5362 91.6475C44.6798 91.8963 44.8711 92.1144 45.099 92.2893C45.3269 92.4642 45.5871 92.5924 45.8646 92.6668L47.5542 93.12C47.8384 93.1966 48.1352 93.2148 48.4266 93.1736C48.7181 93.1324 48.9981 93.0326 49.25 92.8803C49.2507 93.1123 49.3435 93.3346 49.5081 93.4982C49.6727 93.6618 49.8955 93.7533 50.1276 93.7526C50.3597 93.7519 50.5819 93.6591 50.7455 93.4945C50.9091 93.3299 51.0007 93.1071 51 92.875V92C51 91.6666 51.0236 91.3385 51.0682 91.0174L55.6217 92.238C55.8331 92.6904 56.1691 93.0732 56.5904 93.3413C57.0116 93.6095 57.5006 93.7519 58 93.7519C58.4993 93.7519 58.9883 93.6095 59.4096 93.3413C59.8308 93.0732 60.1669 92.6904 60.3782 92.238L64.9317 91.0174C64.9763 91.3385 65 91.6666 65 92V92.875C64.9988 93.1071 65.0899 93.3301 65.2532 93.495C65.4164 93.6599 65.6385 93.7532 65.8706 93.7544C66.1027 93.7555 66.3257 93.6645 66.4906 93.5012C66.6555 93.3379 66.7488 93.1158 66.75 92.8837C67.24 93.1777 67.8455 93.2801 68.4413 93.12L70.1318 92.6676C70.4094 92.5933 70.6695 92.465 70.8974 92.2902C71.1254 92.1153 71.3166 91.8972 71.4603 91.6484C71.6039 91.3996 71.6972 91.125 71.7347 90.8401C71.7722 90.5553 71.7532 90.2659 71.6788 89.9884L70.999 87.4526C70.8487 86.8923 70.482 86.4147 69.9795 86.1247C69.4771 85.8348 68.88 85.7563 68.3197 85.9065L66.6292 86.3589C66.1092 86.4973 65.6588 86.8234 65.3648 87.2741V87.275ZM51.5276 89.3286C52.0003 88.1855 52.7671 87.1879 53.7502 86.4371C54.7334 85.6863 55.8977 85.2092 57.125 85.0543V88.6496C56.7328 88.7887 56.3793 89.0188 56.0933 89.3211C55.8074 89.6233 55.5972 89.989 55.48 90.3883L51.5276 89.3295V89.3286ZM64.4723 89.3286C63.9996 88.1855 63.2327 87.188 62.2496 86.4372C61.2665 85.6865 60.1022 85.2093 58.875 85.0543V88.6496C59.666 88.9296 60.2837 89.5771 60.52 90.3883L64.4723 89.3295V89.3286ZM58 92C58.232 92 58.4546 91.9078 58.6187 91.7437C58.7828 91.5796 58.875 91.3571 58.875 91.125C58.875 90.8929 58.7828 90.6704 58.6187 90.5063C58.4546 90.3422 58.232 90.25 58 90.25C57.7679 90.25 57.5453 90.3422 57.3813 90.5063C57.2172 90.6704 57.125 90.8929 57.125 91.125C57.125 91.3571 57.2172 91.5796 57.3813 91.7437C57.5453 91.9078 57.7679 92 58 92Z" fill="white" stroke="#333333" stroke-width="0.4" mask="url(#path-2-inside-1_117_807)"/>
</g>
</g>
<path id="As A Driver" d="M24.616 46.9H20.066L19.198 49H16.874L21.242 39.2H23.482L27.864 49H25.484L24.616 46.9ZM23.902 45.178L22.348 41.426L20.794 45.178H23.902ZM31.1924 49.112C30.5671 49.112 29.9557 49.0373 29.3584 48.888C28.7611 48.7293 28.2851 48.5333 27.9304 48.3L28.6584 46.732C28.9944 46.9467 29.4004 47.124 29.8764 47.264C30.3524 47.3947 30.8191 47.46 31.2764 47.46C32.2004 47.46 32.6624 47.2313 32.6624 46.774C32.6624 46.5593 32.5364 46.4053 32.2844 46.312C32.0324 46.2187 31.6451 46.1393 31.1224 46.074C30.5064 45.9807 29.9977 45.8733 29.5964 45.752C29.1951 45.6307 28.8451 45.416 28.5464 45.108C28.2571 44.8 28.1124 44.3613 28.1124 43.792C28.1124 43.316 28.2477 42.896 28.5184 42.532C28.7984 42.1587 29.1997 41.8693 29.7224 41.664C30.2544 41.4587 30.8797 41.356 31.5984 41.356C32.1304 41.356 32.6577 41.4167 33.1804 41.538C33.7124 41.65 34.1511 41.8087 34.4964 42.014L33.7684 43.568C33.1057 43.1947 32.3824 43.008 31.5984 43.008C31.1317 43.008 30.7817 43.0733 30.5484 43.204C30.3151 43.3347 30.1984 43.5027 30.1984 43.708C30.1984 43.9413 30.3244 44.1047 30.5764 44.198C30.8284 44.2913 31.2297 44.38 31.7804 44.464C32.3964 44.5667 32.9004 44.6787 33.2924 44.8C33.6844 44.912 34.0251 45.122 34.3144 45.43C34.6037 45.738 34.7484 46.1673 34.7484 46.718C34.7484 47.1847 34.6084 47.6 34.3284 47.964C34.0484 48.328 33.6377 48.6127 33.0964 48.818C32.5644 49.014 31.9297 49.112 31.1924 49.112ZM46.6687 46.9H42.1187L41.2507 49H38.9267L43.2947 39.2H45.5347L49.9167 49H47.5367L46.6687 46.9ZM45.9547 45.178L44.4007 41.426L42.8467 45.178H45.9547ZM54.8983 39.2H59.3503C60.4143 39.2 61.3523 39.4053 62.1643 39.816C62.9857 40.2173 63.6203 40.7867 64.0683 41.524C64.5257 42.2613 64.7543 43.12 64.7543 44.1C64.7543 45.08 64.5257 45.9387 64.0683 46.676C63.6203 47.4133 62.9857 47.9873 62.1643 48.398C61.3523 48.7993 60.4143 49 59.3503 49H54.8983V39.2ZM59.2383 47.138C60.2183 47.138 60.9977 46.8673 61.5763 46.326C62.1643 45.7753 62.4583 45.0333 62.4583 44.1C62.4583 43.1667 62.1643 42.4293 61.5763 41.888C60.9977 41.3373 60.2183 41.062 59.2383 41.062H57.1663V47.138H59.2383ZM68.3967 42.462C68.6581 42.098 69.0081 41.8227 69.4467 41.636C69.8947 41.4493 70.4081 41.356 70.9867 41.356V43.372C70.7441 43.3533 70.5807 43.344 70.4967 43.344C69.8714 43.344 69.3814 43.5213 69.0267 43.876C68.6721 44.2213 68.4947 44.744 68.4947 45.444V49H66.3107V41.468H68.3967V42.462ZM72.2853 41.468H74.4693V49H72.2853V41.468ZM73.3773 40.418C72.976 40.418 72.6493 40.3013 72.3973 40.068C72.1453 39.8347 72.0193 39.5453 72.0193 39.2C72.0193 38.8547 72.1453 38.5653 72.3973 38.332C72.6493 38.0987 72.976 37.982 73.3773 37.982C73.7787 37.982 74.1053 38.094 74.3573 38.318C74.6093 38.542 74.7353 38.822 74.7353 39.158C74.7353 39.522 74.6093 39.8253 74.3573 40.068C74.1053 40.3013 73.7787 40.418 73.3773 40.418ZM83.9723 41.468L80.7943 49H78.5403L75.3763 41.468H77.6303L79.7163 46.592L81.8723 41.468H83.9723ZM92.0364 45.262C92.0364 45.29 92.0224 45.486 91.9944 45.85H86.2964C86.3991 46.3167 86.6417 46.6853 87.0244 46.956C87.4071 47.2267 87.8831 47.362 88.4524 47.362C88.8444 47.362 89.1897 47.306 89.4884 47.194C89.7964 47.0727 90.0811 46.886 90.3424 46.634L91.5044 47.894C90.7951 48.706 89.7591 49.112 88.3964 49.112C87.5471 49.112 86.7957 48.9487 86.1424 48.622C85.4891 48.286 84.9851 47.824 84.6304 47.236C84.2757 46.648 84.0984 45.9807 84.0984 45.234C84.0984 44.4967 84.2711 43.834 84.6164 43.246C84.9711 42.6487 85.4517 42.1867 86.0584 41.86C86.6744 41.524 87.3604 41.356 88.1164 41.356C88.8537 41.356 89.5211 41.5147 90.1184 41.832C90.7157 42.1493 91.1824 42.6067 91.5184 43.204C91.8637 43.792 92.0364 44.478 92.0364 45.262ZM88.1304 43.008C87.6357 43.008 87.2204 43.148 86.8844 43.428C86.5484 43.708 86.3431 44.0907 86.2684 44.576H89.9784C89.9037 44.1 89.6984 43.722 89.3624 43.442C89.0264 43.1527 88.6157 43.008 88.1304 43.008ZM95.5764 42.462C95.8378 42.098 96.1878 41.8227 96.6264 41.636C97.0744 41.4493 97.5878 41.356 98.1664 41.356V43.372C97.9238 43.3533 97.7604 43.344 97.6764 43.344C97.0511 43.344 96.5611 43.5213 96.2064 43.876C95.8518 44.2213 95.6744 44.744 95.6744 45.444V49H93.4904V41.468H95.5764V42.462Z" fill="white"/>
</g>
<defs>
<filter id="filter0_d_117_807" x="0" y="0" width="120" height="120" filterUnits="userSpaceOnUse" color-interpolation-filters="sRGB">
<feFlood flood-opacity="0" result="BackgroundImageFix"/>
<feColorMatrix in="SourceAlpha" type="matrix" values="0 0 0 0 0 0 0 0 0 0 0 0 0 0 0 0 0 0 127 0" result="hardAlpha"/>
<feOffset dx="2" dy="2"/>
<feGaussianBlur stdDeviation="5"/>
<feComposite in2="hardAlpha" operator="out"/>
<feColorMatrix type="matrix" values="0 0 0 0 0 0 0 0 0 0 0 0 0 0 0 0 0 0 0.23 0"/>
<feBlend mode="normal" in2="BackgroundImageFix" result="effect1_dropShadow_117_807"/>
<feBlend mode="normal" in="SourceGraphic" in2="effect1_dropShadow_117_807" result="shape"/>
</filter>
</defs>
</svg>
