<svg width="120" height="120" viewBox="0 0 120 120" fill="none" xmlns="http://www.w3.org/2000/svg">
<g id="driver">
<g id="Ellipse 7" filter="url(#filter0_d_117_807)">
<circle cx="58" cy="58" r="50" fill="#333333"/>
</g>
<g id="healthicons:truck-driver">
<g id="Vector">
<mask id="path-2-inside-1_117_807" fill="white">
<path fill-rule="evenodd" clip-rule="evenodd" d="M50.125 65.3125C50.125 64.9293 54.0765 62.25 58 62.25C61.9235 62.25 65.875 64.9301 65.875 65.3125C65.875 66.6775 65.7297 67.486 65.6072 67.9261C65.5258 68.2149 65.2555 68.375 64.9553 68.375H51.0446C50.7445 68.375 50.4741 68.2149 50.3927 67.9261C50.2702 67.486 50.125 66.6775 50.125 65.3125ZM56.6875 64.875C56.4554 64.875 56.2328 64.9672 56.0688 65.1313C55.9047 65.2954 55.8125 65.5179 55.8125 65.75C55.8125 65.9821 55.9047 66.2046 56.0688 66.3687C56.2328 66.5328 56.4554 66.625 56.6875 66.625H59.3125C59.5445 66.625 59.7671 66.5328 59.9312 66.3687C60.0953 66.2046 60.1875 65.9821 60.1875 65.75C60.1875 65.5179 60.0953 65.2954 59.9312 65.1313C59.7671 64.9672 59.5445 64.875 59.3125 64.875H56.6875ZM51.0332 73.8158C48.1195 72.9145 48.8545 71.3045 49.9657 70.125H66.2775C67.1665 71.2607 67.6433 72.7929 64.9562 73.7099C65.0661 74.6846 64.9698 75.6716 64.6737 76.6068C64.3775 77.542 63.8882 78.4045 63.2373 79.1383C62.5864 79.8722 61.7885 80.4611 60.8954 80.8668C60.0023 81.2726 59.0339 81.486 58.053 81.4934C57.0721 81.5008 56.1006 81.302 55.2015 80.9098C54.3024 80.5176 53.4957 79.9408 52.8338 79.2168C52.172 78.4928 51.6696 77.6378 51.3594 76.7072C51.0492 75.7766 50.9381 74.7912 51.0332 73.8149V73.8158ZM57.762 74.5C60.0737 74.5 61.8657 74.3775 63.2395 74.164C63.2846 74.8774 63.1836 75.5925 62.9426 76.2655C62.7017 76.9385 62.3258 77.5552 61.8381 78.0778C61.3503 78.6003 60.761 79.0178 60.1062 79.3046C59.4515 79.5914 58.745 79.7415 58.0302 79.7456C57.3154 79.7497 56.6072 79.6078 55.9492 79.3286C55.2912 79.0493 54.6971 78.6387 54.2034 78.1217C53.7097 77.6048 53.3267 76.9925 53.078 76.3223C52.8293 75.6521 52.72 74.9382 52.757 74.2244C54.0371 74.4011 55.6777 74.5 57.762 74.5ZM65.3648 87.275C64.5734 86.0402 63.484 85.0243 62.197 84.321C60.9099 83.6176 59.4667 83.2493 58 83.25C56.5327 83.2491 55.0888 83.6174 53.8012 84.3211C52.5137 85.0248 51.424 86.0413 50.6325 87.2768C50.3387 86.8243 49.8876 86.497 49.3663 86.358L47.6758 85.9056C47.1155 85.7554 46.5185 85.8339 46.016 86.1239C45.5136 86.4138 45.1469 86.8915 44.9966 87.4517L44.3176 89.9875C44.2432 90.265 44.2243 90.5544 44.2618 90.8393C44.2993 91.1241 44.3925 91.3988 44.5362 91.6475C44.6798 91.8963 44.8711 92.1144 45.099 92.2893C45.3269 92.4642 45.5871 92.5924 45.8646 92.6668L47.5542 93.12C47.8384 93.1966 48.1352 93.2148 48.4266 93.1736C48.7181 93.1324 48.9981 93.0326 49.25 92.8803C49.2507 93.1123 49.3435 93.3346 49.5081 93.4982C49.6727 93.6618 49.8955 93.7533 50.1276 93.7526C50.3597 93.7519 50.5819 93.6591 50.7455 93.4945C50.9091 93.3299 51.0007 93.1071 51 92.875V92C51 91.6666 51.0236 91.3385 51.0682 91.0174L55.6217 92.238C55.8331 92.6904 56.1691 93.0732 56.5904 93.3413C57.0116 93.6095 57.5006 93.7519 58 93.7519C58.4993 93.7519 58.9883 93.6095 59.4096 93.3413C59.8308 93.0732 60.1669 92.6904 60.3782 92.238L64.9317 91.0174C64.9763 91.3385 65 91.6666 65 92V92.875C64.9988 93.1071 65.0899 93.3301 65.2532 93.495C65.4164 93.6599 65.6385 93.7532 65.8706 93.7544C66.1027 93.7555 66.3257 93.6645 66.4906 93.5012C66.6555 93.3379 66.7488 93.1158 66.75 92.8837C67.24 93.1777 67.8455 93.2801 68.4413 93.12L70.1318 92.6676C70.4094 92.5933 70.6695 92.465 70.8974 92.2902C71.1254 92.1153 71.3166 91.8972 71.4603 91.6484C71.6039 91.3996 71.6972 91.125 71.7347 90.8401C71.7722 90.5553 71.7532 90.2659 71.6788 89.9884L70.999 87.4526C70.8487 86.8923 70.482 86.4147 69.9795 86.1247C69.4771 85.8348 68.88 85.7563 68.3197 85.9065L66.6292 86.3589C66.1092 86.4973 65.6588 86.8234 65.3648 87.2741V87.275ZM51.5276 89.3286C52.0003 88.1855 52.7671 87.1879 53.7502 86.4371C54.7334 85.6863 55.8977 85.2092 57.125 85.0543V88.6496C56.7328 88.7887 56.3793 89.0188 56.0933 89.3211C55.8074 89.6233 55.5972 89.989 55.48 90.3883L51.5276 89.3295V89.3286ZM64.4723 89.3286C63.9996 88.1855 63.2327 87.188 62.2496 86.4372C61.2665 85.6865 60.1022 85.2093 58.875 85.0543V88.6496C59.666 88.9296 60.2837 89.5771 60.52 90.3883L64.4723 89.3295V89.3286ZM58 92C58.232 92 58.4546 91.9078 58.6187 91.7437C58.7828 91.5796 58.875 91.3571 58.875 91.125C58.875 90.8929 58.7828 90.6704 58.6187 90.5063C58.4546 90.3422 58.232 90.25 58 90.25C57.7679 90.25 57.5453 90.3422 57.3813 90.5063C57.2172 90.6704 57.125 90.8929 57.125 91.125C57.125 91.3571 57.2172 91.5796 57.3813 91.7437C57.5453 91.9078 57.7679 92 58 92Z"/>
</mask>
<path fill-rule="evenodd" clip-rule="evenodd" d="M50.125 65.3125C50.125 64.9293 54.0765 62.25 58 62.25C61.9235 62.25 65.875 64.9301 65.875 65.3125C65.875 66.6775 65.7297 67.486 65.6072 67.9261C65.5258 68.2149 65.2555 68.375 64.9553 68.375H51.0446C50.7445 68.375 50.4741 68.2149 50.3927 67.9261C50.2702 67.486 50.125 66.6775 50.125 65.3125ZM56.6875 64.875C56.4554 64.875 56.2328 64.9672 56.0688 65.1313C55.9047 65.2954 55.8125 65.5179 55.8125 65.75C55.8125 65.9821 55.9047 66.2046 56.0688 66.3687C56.2328 66.5328 56.4554 66.625 56.6875 66.625H59.3125C59.5445 66.625 59.7671 66.5328 59.9312 66.3687C60.0953 66.2046 60.1875 65.9821 60.1875 65.75C60.1875 65.5179 60.0953 65.2954 59.9312 65.1313C59.7671 64.9672 59.5445 64.875 59.3125 64.875H56.6875ZM51.0332 73.8158C48.1195 72.9145 48.8545 71.3045 49.9657 70.125H66.2775C67.1665 71.2607 67.6433 72.7929 64.9562 73.7099C65.0661 74.6846 64.9698 75.6716 64.6737 76.6068C64.3775 77.542 63.8882 78.4045 63.2373 79.1383C62.5864 79.8722 61.7885 80.4611 60.8954 80.8668C60.0023 81.2726 59.0339 81.486 58.053 81.4934C57.0721 81.5008 56.1006 81.302 55.2015 80.9098C54.3024 80.5176 53.4957 79.9408 52.8338 79.2168C52.172 78.4928 51.6696 77.6378 51.3594 76.7072C51.0492 75.7766 50.9381 74.7912 51.0332 73.8149V73.8158ZM57.762 74.5C60.0737 74.5 61.8657 74.3775 63.2395 74.164C63.2846 74.8774 63.1836 75.5925 62.9426 76.2655C62.7017 76.9385 62.3258 77.5552 61.8381 78.0778C61.3503 78.6003 60.761 79.0178 60.1062 79.3046C59.4515 79.5914 58.745 79.7415 58.0302 79.7456C57.3154 79.7497 56.6072 79.6078 55.9492 79.3286C55.2912 79.0493 54.6971 78.6387 54.2034 78.1217C53.7097 77.6048 53.3267 76.9925 53.078 76.3223C52.8293 75.6521 52.72 74.9382 52.757 74.2244C54.0371 74.4011 55.6777 74.5 57.762 74.5ZM65.3648 87.275C64.5734 86.0402 63.484 85.0243 62.197 84.321C60.9099 83.6176 59.4667 83.2493 58 83.25C56.5327 83.2491 55.0888 83.6174 53.8012 84.3211C52.5137 85.0248 51.424 86.0413 50.6325 87.2768C50.3387 86.8243 49.8876 86.497 49.3663 86.358L47.6758 85.9056C47.1155 85.7554 46.5185 85.8339 46.016 86.1239C45.5136 86.4138 45.1469 86.8915 44.9966 87.4517L44.3176 89.9875C44.2432 90.265 44.2243 90.5544 44.2618 90.8393C44.2993 91.1241 44.3925 91.3988 44.5362 91.6475C44.6798 91.8963 44.8711 92.1144 45.099 92.2893C45.3269 92.4642 45.5871 92.5924 45.8646 92.6668L47.5542 93.12C47.8384 93.1966 48.1352 93.2148 48.4266 93.1736C48.7181 93.1324 48.9981 93.0326 49.25 92.8803C49.2507 93.1123 49.3435 93.3346 49.5081 93.4982C49.6727 93.6618 49.8955 93.7533 50.1276 93.7526C50.3597 93.7519 50.5819 93.6591 50.7455 93.4945C50.9091 93.3299 51.0007 93.1071 51 92.875V92C51 91.6666 51.0236 91.3385 51.0682 91.0174L55.6217 92.238C55.8331 92.6904 56.1691 93.0732 56.5904 93.3413C57.0116 93.6095 57.5006 93.7519 58 93.7519C58.4993 93.7519 58.9883 93.6095 59.4096 93.3413C59.8308 93.0732 60.1669 92.6904 60.3782 92.238L64.9317 91.0174C64.9763 91.3385 65 91.6666 65 92V92.875C64.9988 93.1071 65.0899 93.3301 65.2532 93.495C65.4164 93.6599 65.6385 93.7532 65.8706 93.7544C66.1027 93.7555 66.3257 93.6645 66.4906 93.5012C66.6555 93.3379 66.7488 93.1158 66.75 92.8837C67.24 93.1777 67.8455 93.2801 68.4413 93.12L70.1318 92.6676C70.4094 92.5933 70.6695 92.465 70.8974 92.2902C71.1254 92.1153 71.3166 91.8972 71.4603 91.6484C71.6039 91.3996 71.6972 91.125 71.7347 90.8401C71.7722 90.5553 71.7532 90.2659 71.6788 89.9884L70.999 87.4526C70.8487 86.8923 70.482 86.4147 69.9795 86.1247C69.4771 85.8348 68.88 85.7563 68.3197 85.9065L66.6292 86.3589C66.1092 86.4973 65.6588 86.8234 65.3648 87.2741V87.275ZM51.5276 89.3286C52.0003 88.1855 52.7671 87.1879 53.7502 86.4371C54.7334 85.6863 55.8977 85.2092 57.125 85.0543V88.6496C56.7328 88.7887 56.3793 89.0188 56.0933 89.3211C55.8074 89.6233 55.5972 89.989 55.48 90.3883L51.5276 89.3295V89.3286ZM64.4723 89.3286C63.9996 88.1855 63.2327 87.188 62.2496 86.4372C61.2665 85.6865 60.1022 85.2093 58.875 85.0543V88.6496C59.666 88.9296 60.2837 89.5771 60.52 90.3883L64.4723 89.3295V89.3286ZM58 92C58.232 92 58.4546 91.9078 58.6187 91.7437C58.7828 91.5796 58.875 91.3571 58.875 91.125C58.875 90.8929 58.7828 90.6704 58.6187 90.5063C58.4546 90.3422 58.232 90.25 58 90.25C57.7679 90.25 57.5453 90.3422 57.3813 90.5063C57.2172 90.6704 57.125 90.8929 57.125 91.125C57.125 91.3571 57.2172 91.5796 57.3813 91.7437C57.5453 91.9078 57.7679 92 58 92Z" fill="white" stroke="#333333" stroke-width="0.4" mask="url(#path-2-inside-1_117_807)"/>
</g>
</g>
<path id="As A Pilot" d="M21.874 49L26.242 39.2H28.482L32.864 49H30.484L26.9 40.348H27.796L24.198 49H21.874ZM24.058 46.9L24.66 45.178H29.7L30.316 46.9H24.058ZM36.1924 49.112C35.5484 49.112 34.9277 49.0373 34.3304 48.888C33.7424 48.7293 33.2757 48.5333 32.9304 48.3L33.6584 46.732C34.0037 46.9467 34.4097 47.124 34.8764 47.264C35.3524 47.3947 35.8191 47.46 36.2764 47.46C36.7804 47.46 37.1351 47.3993 37.3404 47.278C37.5551 47.1567 37.6624 46.9887 37.6624 46.774C37.6624 46.5967 37.5784 46.466 37.4104 46.382C37.2517 46.2887 37.0371 46.2187 36.7664 46.172C36.4957 46.1253 36.1971 46.0787 35.8704 46.032C35.5531 45.9853 35.2311 45.9247 34.9044 45.85C34.5777 45.766 34.2791 45.6447 34.0084 45.486C33.7377 45.3273 33.5184 45.1127 33.3504 44.842C33.1917 44.5713 33.1124 44.2213 33.1124 43.792C33.1124 43.316 33.2477 42.896 33.5184 42.532C33.7984 42.168 34.1997 41.8833 34.7224 41.678C35.2451 41.4633 35.8704 41.356 36.5984 41.356C37.1117 41.356 37.6344 41.412 38.1664 41.524C38.6984 41.636 39.1417 41.7993 39.4964 42.014L38.7684 43.568C38.4044 43.3533 38.0357 43.2087 37.6624 43.134C37.2984 43.05 36.9437 43.008 36.5984 43.008C36.1131 43.008 35.7584 43.0733 35.5344 43.204C35.3104 43.3347 35.1984 43.5027 35.1984 43.708C35.1984 43.8947 35.2777 44.0347 35.4364 44.128C35.6044 44.2213 35.8237 44.296 36.0944 44.352C36.3651 44.408 36.6591 44.4593 36.9764 44.506C37.3031 44.5433 37.6297 44.604 37.9564 44.688C38.2831 44.772 38.5771 44.8933 38.8384 45.052C39.1091 45.2013 39.3284 45.4113 39.4964 45.682C39.6644 45.9433 39.7484 46.2887 39.7484 46.718C39.7484 47.1847 39.6084 47.6 39.3284 47.964C39.0484 48.3187 38.6424 48.5987 38.1104 48.804C37.5877 49.0093 36.9484 49.112 36.1924 49.112ZM43.9267 49L48.2947 39.2H50.5347L54.9167 49H52.5367L48.9527 40.348H49.8487L46.2507 49H43.9267ZM46.1107 46.9L46.7127 45.178H51.7527L52.3687 46.9H46.1107ZM59.8983 49V39.2H64.1403C65.0177 39.2 65.7737 39.3447 66.4083 39.634C67.043 39.914 67.533 40.32 67.8783 40.852C68.2237 41.384 68.3963 42.0187 68.3963 42.756C68.3963 43.484 68.2237 44.114 67.8783 44.646C67.533 45.178 67.043 45.5887 66.4083 45.878C65.7737 46.158 65.0177 46.298 64.1403 46.298H61.1583L62.1663 45.276V49H59.8983ZM62.1663 45.528L61.1583 44.45H64.0143C64.7143 44.45 65.237 44.3007 65.5823 44.002C65.9277 43.7033 66.1003 43.288 66.1003 42.756C66.1003 42.2147 65.9277 41.7947 65.5823 41.496C65.237 41.1973 64.7143 41.048 64.0143 41.048H61.1583L62.1663 39.97V45.528ZM69.9982 49V41.468H72.1822V49H69.9982ZM71.0902 40.418C70.6889 40.418 70.3622 40.3013 70.1102 40.068C69.8582 39.8347 69.7322 39.5453 69.7322 39.2C69.7322 38.8547 69.8582 38.5653 70.1102 38.332C70.3622 38.0987 70.6889 37.982 71.0902 37.982C71.4916 37.982 71.8182 38.094 72.0702 38.318C72.3222 38.5327 72.4482 38.8127 72.4482 39.158C72.4482 39.522 72.3222 39.8253 72.0702 40.068C71.8276 40.3013 71.5009 40.418 71.0902 40.418ZM74.2092 49V38.612H76.3932V49H74.2092ZM82.0041 49.112C81.2014 49.112 80.4874 48.944 79.8621 48.608C79.2461 48.272 78.7561 47.8147 78.3921 47.236C78.0374 46.648 77.8601 45.9807 77.8601 45.234C77.8601 44.478 78.0374 43.8107 78.3921 43.232C78.7561 42.644 79.2461 42.1867 79.8621 41.86C80.4874 41.524 81.2014 41.356 82.0041 41.356C82.7974 41.356 83.5068 41.524 84.1321 41.86C84.7574 42.1867 85.2474 42.6393 85.6021 43.218C85.9568 43.7967 86.1341 44.4687 86.1341 45.234C86.1341 45.9807 85.9568 46.648 85.6021 47.236C85.2474 47.8147 84.7574 48.272 84.1321 48.608C83.5068 48.944 82.7974 49.112 82.0041 49.112ZM82.0041 47.32C82.3681 47.32 82.6948 47.236 82.9841 47.068C83.2734 46.9 83.5021 46.662 83.6701 46.354C83.8381 46.0367 83.9221 45.6633 83.9221 45.234C83.9221 44.7953 83.8381 44.422 83.6701 44.114C83.5021 43.806 83.2734 43.568 82.9841 43.4C82.6948 43.232 82.3681 43.148 82.0041 43.148C81.6401 43.148 81.3134 43.232 81.0241 43.4C80.7348 43.568 80.5014 43.806 80.3241 44.114C80.1561 44.422 80.0721 44.7953 80.0721 45.234C80.0721 45.6633 80.1561 46.0367 80.3241 46.354C80.5014 46.662 80.7348 46.9 81.0241 47.068C81.3134 47.236 81.6401 47.32 82.0041 47.32ZM90.6739 49.112C89.7873 49.112 89.0966 48.888 88.6019 48.44C88.1073 47.9827 87.8599 47.306 87.8599 46.41V39.802H90.0439V46.382C90.0439 46.6993 90.1279 46.9467 90.2959 47.124C90.4639 47.292 90.6926 47.376 90.9819 47.376C91.3273 47.376 91.6213 47.2827 91.8639 47.096L92.4519 48.636C92.2279 48.7947 91.9573 48.916 91.6399 49C91.3319 49.0747 91.0099 49.112 90.6739 49.112ZM86.6979 43.316V41.636H91.9199V43.316H86.6979Z" fill="white"/>
</g>
<defs>
<filter id="filter0_d_117_807" x="0" y="0" width="120" height="120" filterUnits="userSpaceOnUse" color-interpolation-filters="sRGB">
<feFlood flood-opacity="0" result="BackgroundImageFix"/>
<feColorMatrix in="SourceAlpha" type="matrix" values="0 0 0 0 0 0 0 0 0 0 0 0 0 0 0 0 0 0 127 0" result="hardAlpha"/>
<feOffset dx="2" dy="2"/>
<feGaussianBlur stdDeviation="5"/>
<feComposite in2="hardAlpha" operator="out"/>
<feColorMatrix type="matrix" values="0 0 0 0 0 0 0 0 0 0 0 0 0 0 0 0 0 0 0.23 0"/>
<feBlend mode="normal" in2="BackgroundImageFix" result="effect1_dropShadow_117_807"/>
<feBlend mode="normal" in="SourceGraphic" in2="effect1_dropShadow_117_807" result="shape"/>
</filter>
</defs>
</svg>
