<svg width="26" height="26" viewBox="0 0 26 26" fill="none" xmlns="http://www.w3.org/2000/svg">
<g id="hand-click">
<g id="main">
<g id="hand">
<path id="Vector" d="M15 12.5C15 12.1022 15.158 11.7206 15.4393 11.4393C15.7206 11.158 16.1022 11 16.5 11C16.8978 11 17.2794 11.158 17.5607 11.4393C17.842 11.7206 18 12.1022 18 12.5V14M9 15V6.5C9 6.10218 9.15804 5.72064 9.43934 5.43934C9.72064 5.15804 10.1022 5 10.5 5C10.8978 5 11.2794 5.15804 11.5607 5.43934C11.842 5.72064 12 6.10218 12 6.5V14L9 15ZM12 13.5V11.5C12 11.1022 12.158 10.7206 12.4393 10.4393C12.7206 10.158 13.1022 10 13.5 10C13.8978 10 14.2794 10.158 14.5607 10.4393C14.842 10.7206 15 11.1022 15 11.5V14L12 13.5Z" stroke-linecap="round" stroke-linejoin="round"/>
<path id="Vector_2" d="M18 14.5C18 14.1022 18.1582 12.7206 18.4395 12.4393C18.7208 12.158 19.1024 12 19.5002 12C19.898 12 20.2795 12.158 20.5608 12.4393C20.8421 12.7206 21.0002 13.1022 21.0002 13.5V18C21.0002 19.5913 20.368 21.1174 19.2428 22.2426C18.1176 23.3679 16.5915 24 15.0002 24H13.0002H13.2082C12.2145 24.0002 11.2364 23.7535 10.3616 23.2823C9.48676 22.811 8.7427 22.1299 8.19618 21.3L8.00018 21C7.68818 20.521 6.59318 18.612 4.71418 15.272C4.52263 14.9315 4.47147 14.5298 4.57157 14.1522C4.67166 13.7745 4.91513 13.4509 5.25018 13.25C5.60706 13.0359 6.02526 12.9471 6.43834 12.9978C6.85143 13.0486 7.23572 13.2359 7.53018 13.53L9.00018 15" stroke-linecap="round" stroke-linejoin="round"/>
</g>
<path id="rec" d="M6 5L5 4M5 9H4M15 5L16 4M16 8H17M10 1.5V3" stroke-linecap="round" stroke-linejoin="round"/>
</g>
</g>
</svg>
