<svg width="124" height="124" viewBox="0 0 124 124" fill="none" xmlns="http://www.w3.org/2000/svg">
<g id="user">
<g id="Ellipse 6" filter="url(#filter0_d_117_802)">
<circle cx="60" cy="60" r="50" fill="#333333"/>
</g>
<path id="As An User" d="M27.616 48.9H23.066L22.198 51H19.874L24.242 41.2H26.482L30.864 51H28.484L27.616 48.9ZM26.902 47.178L25.348 43.426L23.794 47.178H26.902ZM34.1924 51.112C33.5671 51.112 32.9557 51.0373 32.3584 50.888C31.7611 50.7293 31.2851 50.5333 30.9304 50.3L31.6584 48.732C31.9944 48.9467 32.4004 49.124 32.8764 49.264C33.3524 49.3947 33.8191 49.46 34.2764 49.46C35.2004 49.46 35.6624 49.2313 35.6624 48.774C35.6624 48.5593 35.5364 48.4053 35.2844 48.312C35.0324 48.2187 34.6451 48.1393 34.1224 48.074C33.5064 47.9807 32.9977 47.8733 32.5964 47.752C32.1951 47.6307 31.8451 47.416 31.5464 47.108C31.2571 46.8 31.1124 46.3613 31.1124 45.792C31.1124 45.316 31.2477 44.896 31.5184 44.532C31.7984 44.1587 32.1997 43.8693 32.7224 43.664C33.2544 43.4587 33.8797 43.356 34.5984 43.356C35.1304 43.356 35.6577 43.4167 36.1804 43.538C36.7124 43.65 37.1511 43.8087 37.4964 44.014L36.7684 45.568C36.1057 45.1947 35.3824 45.008 34.5984 45.008C34.1317 45.008 33.7817 45.0733 33.5484 45.204C33.3151 45.3347 33.1984 45.5027 33.1984 45.708C33.1984 45.9413 33.3244 46.1047 33.5764 46.198C33.8284 46.2913 34.2297 46.38 34.7804 46.464C35.3964 46.5667 35.9004 46.6787 36.2924 46.8C36.6844 46.912 37.0251 47.122 37.3144 47.43C37.6037 47.738 37.7484 48.1673 37.7484 48.718C37.7484 49.1847 37.6084 49.6 37.3284 49.964C37.0484 50.328 36.6377 50.6127 36.0964 50.818C35.5644 51.014 34.9297 51.112 34.1924 51.112ZM49.6687 48.9H45.1187L44.2507 51H41.9267L46.2947 41.2H48.5347L52.9167 51H50.5367L49.6687 48.9ZM48.9547 47.178L47.4007 43.426L45.8467 47.178H48.9547ZM58.3575 43.356C59.2908 43.356 60.0422 43.636 60.6115 44.196C61.1902 44.756 61.4795 45.5867 61.4795 46.688V51H59.2955V47.024C59.2955 46.4267 59.1648 45.9833 58.9035 45.694C58.6422 45.3953 58.2642 45.246 57.7695 45.246C57.2188 45.246 56.7802 45.4187 56.4535 45.764C56.1268 46.1 55.9635 46.604 55.9635 47.276V51H53.7795V43.468H55.8655V44.35C56.1548 44.0327 56.5142 43.79 56.9435 43.622C57.3728 43.4447 57.8442 43.356 58.3575 43.356ZM71.932 51.168C70.532 51.168 69.44 50.7807 68.656 50.006C67.8813 49.2313 67.494 48.1253 67.494 46.688V41.2H69.762V46.604C69.762 48.3587 70.49 49.236 71.946 49.236C72.6553 49.236 73.1967 49.026 73.57 48.606C73.9433 48.1767 74.13 47.5093 74.13 46.604V41.2H76.37V46.688C76.37 48.1253 75.978 49.2313 75.194 50.006C74.4193 50.7807 73.332 51.168 71.932 51.168ZM80.9912 51.112C80.3659 51.112 79.7546 51.0373 79.1572 50.888C78.5599 50.7293 78.0839 50.5333 77.7292 50.3L78.4572 48.732C78.7932 48.9467 79.1992 49.124 79.6752 49.264C80.1512 49.3947 80.6179 49.46 81.0752 49.46C81.9992 49.46 82.4612 49.2313 82.4612 48.774C82.4612 48.5593 82.3352 48.4053 82.0832 48.312C81.8312 48.2187 81.4439 48.1393 80.9212 48.074C80.3052 47.9807 79.7966 47.8733 79.3952 47.752C78.9939 47.6307 78.6439 47.416 78.3452 47.108C78.0559 46.8 77.9112 46.3613 77.9112 45.792C77.9112 45.316 78.0466 44.896 78.3172 44.532C78.5972 44.1587 78.9986 43.8693 79.5212 43.664C80.0532 43.4587 80.6786 43.356 81.3972 43.356C81.9292 43.356 82.4566 43.4167 82.9792 43.538C83.5112 43.65 83.9499 43.8087 84.2952 44.014L83.5672 45.568C82.9046 45.1947 82.1812 45.008 81.3972 45.008C80.9306 45.008 80.5806 45.0733 80.3472 45.204C80.1139 45.3347 79.9972 45.5027 79.9972 45.708C79.9972 45.9413 80.1232 46.1047 80.3752 46.198C80.6272 46.2913 81.0286 46.38 81.5792 46.464C82.1952 46.5667 82.6992 46.6787 83.0912 46.8C83.4832 46.912 83.8239 47.122 84.1132 47.43C84.4026 47.738 84.5472 48.1673 84.5472 48.718C84.5472 49.1847 84.4072 49.6 84.1272 49.964C83.8472 50.328 83.4366 50.6127 82.8952 50.818C82.3632 51.014 81.7286 51.112 80.9912 51.112ZM93.2727 47.262C93.2727 47.29 93.2587 47.486 93.2307 47.85H87.5327C87.6354 48.3167 87.8781 48.6853 88.2607 48.956C88.6434 49.2267 89.1194 49.362 89.6887 49.362C90.0807 49.362 90.4261 49.306 90.7247 49.194C91.0327 49.0727 91.3174 48.886 91.5787 48.634L92.7407 49.894C92.0314 50.706 90.9954 51.112 89.6327 51.112C88.7834 51.112 88.0321 50.9487 87.3787 50.622C86.7254 50.286 86.2214 49.824 85.8667 49.236C85.5121 48.648 85.3347 47.9807 85.3347 47.234C85.3347 46.4967 85.5074 45.834 85.8527 45.246C86.2074 44.6487 86.6881 44.1867 87.2947 43.86C87.9107 43.524 88.5967 43.356 89.3527 43.356C90.0901 43.356 90.7574 43.5147 91.3547 43.832C91.9521 44.1493 92.4187 44.6067 92.7547 45.204C93.1001 45.792 93.2727 46.478 93.2727 47.262ZM89.3667 45.008C88.8721 45.008 88.4567 45.148 88.1207 45.428C87.7847 45.708 87.5794 46.0907 87.5047 46.576H91.2147C91.1401 46.1 90.9347 45.722 90.5987 45.442C90.2627 45.1527 89.8521 45.008 89.3667 45.008ZM96.8128 44.462C97.0741 44.098 97.4241 43.8227 97.8628 43.636C98.3108 43.4493 98.8241 43.356 99.4028 43.356V45.372C99.1601 45.3533 98.9968 45.344 98.9128 45.344C98.2874 45.344 97.7974 45.5213 97.4428 45.876C97.0881 46.2213 96.9108 46.744 96.9108 47.444V51H94.7268V43.468H96.8128V44.462Z" fill="white"/>
<g id="bx:user-plus">
<path id="Vector" d="M72.75 79.5H73V79.25V74.25H76V79.25V79.5H76.25H81.25V82.5H76.25H76V82.75V87.75H73V82.75V82.5H72.75H67.75V79.5H72.75ZM50.2499 74.0058L50.2502 74.0058L50.2499 73.9942C50.2292 73.1028 50.3894 72.2165 50.721 71.3889C51.0526 70.5613 51.5486 69.8095 52.179 69.179C52.8095 68.5486 53.5613 68.0526 54.3889 67.721C55.2165 67.3894 56.1028 67.2292 56.9942 67.2499L56.9942 67.2502L57.0058 67.2499C57.8972 67.2292 58.7835 67.3894 59.6111 67.721C60.4387 68.0526 61.1905 68.5486 61.821 69.179C62.4514 69.8095 62.9474 70.5613 63.279 71.3889C63.6106 72.2165 63.7708 73.1028 63.7501 73.9942L63.7498 73.9942L63.7501 74.0058C63.7708 74.8972 63.6106 75.7835 63.279 76.6111C62.9474 77.4387 62.4514 78.1905 61.821 78.821C61.1905 79.4514 60.4387 79.9474 59.6111 80.279C58.7835 80.6106 57.8972 80.7708 57.0058 80.7501L57.0058 80.7498L56.9942 80.7501C56.1028 80.7708 55.2165 80.6106 54.3889 80.279C53.5613 79.9474 52.8095 79.4514 52.179 78.821C51.5486 78.1905 51.0526 77.4387 50.721 76.6111C50.3894 75.7835 50.2292 74.8972 50.2499 74.0058ZM60.7503 74C60.7726 73.5036 60.6917 73.008 60.5127 72.5444C60.3322 72.077 60.0559 71.6526 59.7017 71.2983C59.3474 70.9441 58.923 70.6678 58.4556 70.4873C57.992 70.3083 57.4964 70.2274 57 70.2497C56.5036 70.2274 56.008 70.3083 55.5444 70.4873C55.077 70.6678 54.6526 70.9441 54.2983 71.2983C53.9441 71.6526 53.6678 72.077 53.4873 72.5444C53.3083 73.008 53.2274 73.5036 53.2497 74C53.2274 74.4964 53.3083 74.992 53.4873 75.4556C53.6678 75.923 53.9441 76.3474 54.2983 76.7017C54.6526 77.0559 55.077 77.3322 55.5444 77.5127C56.008 77.6917 56.5036 77.7726 57 77.7503C57.4964 77.7726 57.992 77.6917 58.4556 77.5127C58.923 77.3322 59.3474 77.0559 59.7017 76.7017C60.0559 76.3474 60.3322 75.923 60.5127 75.4556C60.6917 74.992 60.7726 74.4964 60.7503 74ZM51.3609 87.6109C50.3295 88.6424 49.75 90.0413 49.75 91.5V93H46.75V91.5C46.75 89.2457 47.6455 87.0836 49.2396 85.4896C50.8337 83.8955 52.9957 83 55.25 83H58.75C59.8662 83 60.9715 83.2199 62.0028 83.647C63.0341 84.0742 63.9711 84.7003 64.7604 85.4896C65.5497 86.2789 66.1758 87.2159 66.603 88.2472C67.0301 89.2785 67.25 90.3838 67.25 91.5V93H64.25V91.5C64.25 90.0413 63.6705 88.6424 62.6391 87.6109C61.6076 86.5795 60.2087 86 58.75 86H55.25C53.7913 86 52.3924 86.5795 51.3609 87.6109Z" fill="white" stroke="#333333" stroke-width="0.5"/>
</g>
</g>
<defs>
<filter id="filter0_d_117_802" x="0" y="0" width="124" height="124" filterUnits="userSpaceOnUse" color-interpolation-filters="sRGB">
<feFlood flood-opacity="0" result="BackgroundImageFix"/>
<feColorMatrix in="SourceAlpha" type="matrix" values="0 0 0 0 0 0 0 0 0 0 0 0 0 0 0 0 0 0 127 0" result="hardAlpha"/>
<feOffset dx="2" dy="2"/>
<feGaussianBlur stdDeviation="6"/>
<feComposite in2="hardAlpha" operator="out"/>
<feColorMatrix type="matrix" values="0 0 0 0 0 0 0 0 0 0 0 0 0 0 0 0 0 0 0.24 0"/>
<feBlend mode="normal" in2="BackgroundImageFix" result="effect1_dropShadow_117_802"/>
<feBlend mode="normal" in="SourceGraphic" in2="effect1_dropShadow_117_802" result="shape"/>
</filter>
</defs>
</svg>
