<svg width="1280" height="650" viewBox="0 0 1280 650" fill="none" xmlns="http://www.w3.org/2000/svg">
<g clip-path="url(#clip0_28_75)">
<rect width="1280" height="650" fill="white"/>
<rect x="950.071" y="445.071" width="10" height="10" fill="#FFFCE5"/>
<rect x="1020.14" y="445.142" width="10" height="10" fill="#FFFCE5"/>
<rect x="984.142" y="445.142" width="10" height="10" fill="#FFFCE5"/>
<rect x="1054.21" y="445.213" width="10" height="10" fill="#FFFCE5"/>
<rect x="965" y="450.071" width="10" height="10" transform="rotate(-45 965 450.071)" fill="#FFFCE5"/>
<rect x="1035.07" y="450.142" width="10" height="10" transform="rotate(-45 1035.07 450.142)" fill="#FFFCE5"/>
<rect x="999.072" y="450.142" width="10" height="10" transform="rotate(-45 999.072 450.142)" fill="#FFFCE5"/>
<rect x="1069.14" y="450.213" width="10" height="10" transform="rotate(-45 1069.14 450.213)" fill="#FFFCE5"/>
<rect x="948" y="469.071" width="10" height="10" transform="rotate(-45 948 469.071)" fill="#FFFCE5"/>
<rect x="1018.07" y="469.142" width="10" height="10" transform="rotate(-45 1018.07 469.142)" fill="#FFFCE5"/>
<rect x="982.071" y="469.142" width="10" height="10" transform="rotate(-45 982.071 469.142)" fill="#FFFCE5"/>
<rect x="1052.14" y="469.213" width="10" height="10" transform="rotate(-45 1052.14 469.213)" fill="#FFFCE5"/>
<rect x="967.071" y="464.071" width="10" height="10" fill="#FFFCE5"/>
<rect x="1037.14" y="464.142" width="10" height="10" fill="#FFFCE5"/>
<rect x="1001.14" y="464.142" width="10" height="10" fill="#FFFCE5"/>
<rect x="1071.21" y="464.213" width="10" height="10" fill="#FFFCE5"/>
<rect x="950.071" y="483.071" width="10" height="10" fill="#FFFCE5"/>
<rect x="1020.14" y="483.142" width="10" height="10" fill="#FFFCE5"/>
<rect x="984.142" y="483.142" width="10" height="10" fill="#FFFCE5"/>
<rect x="1054.21" y="483.213" width="10" height="10" fill="#FFFCE5"/>
<rect x="965" y="488.071" width="10" height="10" transform="rotate(-45 965 488.071)" fill="#FFFCE5"/>
<rect x="1035.07" y="488.142" width="10" height="10" transform="rotate(-45 1035.07 488.142)" fill="#FFFCE5"/>
<rect x="999.071" y="488.142" width="10" height="10" transform="rotate(-45 999.071 488.142)" fill="#FFFCE5"/>
<rect x="1069.14" y="488.213" width="10" height="10" transform="rotate(-45 1069.14 488.213)" fill="#FFFCE5"/>
<rect x="948" y="507.071" width="10" height="10" transform="rotate(-45 948 507.071)" fill="#FFFCE5"/>
<rect x="1018.07" y="507.142" width="10" height="10" transform="rotate(-45 1018.07 507.142)" fill="#FFFCE5"/>
<rect x="982.071" y="507.142" width="10" height="10" transform="rotate(-45 982.071 507.142)" fill="#FFFCE5"/>
<rect x="1052.14" y="507.213" width="10" height="10" transform="rotate(-45 1052.14 507.213)" fill="#FFFCE5"/>
<rect x="967.071" y="502.071" width="10" height="10" fill="#FFFCE5"/>
<rect x="1037.14" y="502.142" width="10" height="10" fill="#FFFCE5"/>
<rect x="1001.14" y="502.142" width="10" height="10" fill="#FFFCE5"/>
<rect x="1071.21" y="502.213" width="10" height="10" fill="#FFFCE5"/>
<rect x="950.071" y="521.071" width="10" height="10" fill="#FFFCE5"/>
<rect x="1020.14" y="521.142" width="10" height="10" fill="#FFFCE5"/>
<rect x="984.142" y="521.142" width="10" height="10" fill="#FFFCE5"/>
<rect x="1054.21" y="521.213" width="10" height="10" fill="#FFFCE5"/>
<rect x="965" y="526.071" width="10" height="10" transform="rotate(-45 965 526.071)" fill="#FFFCE5"/>
<rect x="1035.07" y="526.142" width="10" height="10" transform="rotate(-45 1035.07 526.142)" fill="#FFFCE5"/>
<rect x="999.071" y="526.142" width="10" height="10" transform="rotate(-45 999.071 526.142)" fill="#FFFCE5"/>
<rect x="1069.14" y="526.213" width="10" height="10" transform="rotate(-45 1069.14 526.213)" fill="#FFFCE5"/>
<rect x="948" y="545.071" width="10" height="10" transform="rotate(-45 948 545.071)" fill="#FFFCE5"/>
<rect x="1018.07" y="545.142" width="10" height="10" transform="rotate(-45 1018.07 545.142)" fill="#FFFCE5"/>
<rect x="982.071" y="545.142" width="10" height="10" transform="rotate(-45 982.071 545.142)" fill="#FFFCE5"/>
<rect x="1052.14" y="545.213" width="10" height="10" transform="rotate(-45 1052.14 545.213)" fill="#FFFCE5"/>
<rect x="967.071" y="540.071" width="10" height="10" fill="#FFFCE5"/>
<rect x="1037.14" y="540.142" width="10" height="10" fill="#FFFCE5"/>
<rect x="1001.14" y="540.142" width="10" height="10" fill="#FFFCE5"/>
<rect x="1071.21" y="540.213" width="10" height="10" fill="#FFFCE5"/>
<rect x="950.071" y="559.071" width="10" height="10" fill="#FFFCE5"/>
<rect x="1020.14" y="559.142" width="10" height="10" fill="#FFFCE5"/>
<rect x="984.142" y="559.142" width="10" height="10" fill="#FFFCE5"/>
<rect x="1054.21" y="559.213" width="10" height="10" fill="#FFFCE5"/>
<rect x="965" y="564.071" width="10" height="10" transform="rotate(-45 965 564.071)" fill="#FFFCE5"/>
<rect x="1035.07" y="564.142" width="10" height="10" transform="rotate(-45 1035.07 564.142)" fill="#FFFCE5"/>
<rect x="999.071" y="564.142" width="10" height="10" transform="rotate(-45 999.071 564.142)" fill="#FFFCE5"/>
<rect x="1069.14" y="564.213" width="10" height="10" transform="rotate(-45 1069.14 564.213)" fill="#FFFCE5"/>
<rect x="948" y="583.071" width="10" height="10" transform="rotate(-45 948 583.071)" fill="#FFFCE5"/>
<rect x="1018.07" y="583.142" width="10" height="10" transform="rotate(-45 1018.07 583.142)" fill="#FFFCE5"/>
<rect x="982.071" y="583.142" width="10" height="10" transform="rotate(-45 982.071 583.142)" fill="#FFFCE5"/>
<rect x="1052.14" y="583.213" width="10" height="10" transform="rotate(-45 1052.14 583.213)" fill="#FFFCE5"/>
<rect x="967.071" y="578.071" width="10" height="10" fill="#FFFCE5"/>
<rect x="1037.14" y="578.142" width="10" height="10" fill="#FFFCE5"/>
<rect x="1001.14" y="578.142" width="10" height="10" fill="#FFFCE5"/>
<rect x="1071.21" y="578.213" width="10" height="10" fill="#FFFCE5"/>
<rect x="950.071" y="597.071" width="10" height="10" fill="#FFFCE5"/>
<rect x="1020.14" y="597.142" width="10" height="10" fill="#FFFCE5"/>
<rect x="984.142" y="597.142" width="10" height="10" fill="#FFFCE5"/>
<rect x="1054.21" y="597.213" width="10" height="10" fill="#FFFCE5"/>
<rect x="965" y="602.071" width="10" height="10" transform="rotate(-45 965 602.071)" fill="#FFFCE5"/>
<rect x="1035.07" y="602.142" width="10" height="10" transform="rotate(-45 1035.07 602.142)" fill="#FFFCE5"/>
<rect x="999.071" y="602.142" width="10" height="10" transform="rotate(-45 999.071 602.142)" fill="#FFFCE5"/>
<rect x="1069.14" y="602.213" width="10" height="10" transform="rotate(-45 1069.14 602.213)" fill="#FFFCE5"/>
<rect x="948" y="621.071" width="10" height="10" transform="rotate(-45 948 621.071)" fill="#FFFCE5"/>
<rect x="1018.07" y="621.142" width="10" height="10" transform="rotate(-45 1018.07 621.142)" fill="#FFFCE5"/>
<rect x="982.071" y="621.142" width="10" height="10" transform="rotate(-45 982.071 621.142)" fill="#FFFCE5"/>
<rect x="1052.14" y="621.213" width="10" height="10" transform="rotate(-45 1052.14 621.213)" fill="#FFFCE5"/>
<rect x="967.071" y="616.071" width="10" height="10" fill="#FFFCE5"/>
<rect x="1037.14" y="616.142" width="10" height="10" fill="#FFFCE5"/>
<rect x="1001.14" y="616.142" width="10" height="10" fill="#FFFCE5"/>
<rect x="1071.21" y="616.213" width="10" height="10" fill="#FFFCE5"/>
<path d="M0 0C535.602 209.35 812.63 190.427 1280 0H0Z" fill="#FFFCE5"/>
<path d="M1624.01 206.618C1652.63 213.431 1664.35 247.767 1645.87 270.657L1396.99 578.95C1384.93 593.89 1363.96 598.152 1347.02 589.106L1105.35 460.01C1082.41 447.755 1077.09 417.21 1094.52 397.911L1314.62 154.328C1324.42 143.486 1339.35 138.849 1353.56 142.233L1624.01 206.618Z" fill="#FBF7DD"/>
<path d="M61.5901 577.131C32.4643 570.659 20.421 535.728 39.369 512.681L289.45 208.497C301.434 193.919 321.978 189.701 338.737 198.377L574.57 320.464C597.969 332.577 603.468 363.611 585.657 383.027L364.611 623.983C354.951 634.513 340.407 639.09 326.458 635.991L61.5901 577.131Z" fill="#FBF7DD"/>
</g>
<defs>
<clipPath id="clip0_28_75">
<rect width="1280" height="650" fill="white"/>
</clipPath>
</defs>
</svg>
