<svg width="30" height="31" viewBox="0 0 30 31" fill="none" xmlns="http://www.w3.org/2000/svg">
<g clip-path="url(#clip0_33_80)">
<path d="M27.6636 16.463L27.1624 16.1896C26.9802 16.0985 26.889 15.9163 26.9346 15.734C27.0713 14.8683 27.1624 11.8612 22.515 10.4943C22.4239 10.4487 22.3328 10.4487 22.2416 10.4487L13.3113 10.4943C13.1291 10.4943 12.9468 10.5399 12.8101 10.631L8.11717 13.7748C8.02604 13.8204 7.93492 13.8659 7.84379 13.8659C6.9781 13.8204 6.15797 13.9115 5.29228 14.0482C2.83188 14.5494 1.8295 15.8707 1.465 16.5541C1.37388 16.6908 1.37388 16.8731 1.37388 17.0098C1.41944 18.1033 0.690433 19.3335 1.78394 20.3359L10.6231 20.2903L19.9179 20.0625L27.2535 19.9714C27.6636 19.9258 28.3471 19.3335 28.5293 18.969C29.3039 17.7388 27.7547 16.5086 27.6636 16.463Z" fill="#D0CFCE"/>
<path d="M6.02124 17.5565C5.01886 17.5565 4.19873 18.3766 4.19873 19.379C4.19873 20.3814 5.01886 21.2015 6.02124 21.2015C7.02362 21.2015 7.84375 20.3814 7.84375 19.379C7.84375 18.3766 7.02362 17.5565 6.02124 17.5565ZM24.1552 17.5565C23.1529 17.5565 22.3327 18.3766 22.3327 19.379C22.3327 20.3814 23.1529 21.2015 24.1552 21.2015C25.1576 21.2015 25.9777 20.3814 25.9777 19.379C25.9777 18.3766 25.1576 17.5565 24.1552 17.5565Z" fill="#9B9B9A"/>
<path d="M23.6996 14.3215L23.6996 12.3623C23.6996 11.9523 23.3351 11.5878 22.9251 11.5878L13.2657 11.5878C13.2202 11.5878 13.1746 11.5878 13.1746 11.6333L9.52959 14.2304C9.43847 14.276 9.43847 14.4127 9.48403 14.5038C9.52959 14.5494 9.57516 14.5949 9.62072 14.5949C12.1722 14.5949 22.0138 14.5038 23.4718 14.5494C23.6085 14.5494 23.6996 14.4582 23.6996 14.3215C23.6996 14.3671 23.6996 14.3671 23.6996 14.3215Z" fill="#3F3F3F"/>
<path d="M2.19394 14.8683L4.01645 15.5973L3.05963 16.9186L0.781494 16.9642L2.19394 14.8683Z" fill="#FCEA2B"/>
<path d="M14.0403 9.81083C14.0403 9.81083 13.9947 8.85401 15.1338 8.80845C16.2273 8.76289 16.2273 9.81083 16.2273 9.81083" fill="#92D3F5"/>
<path d="M14.0403 9.81083C14.0403 9.81083 13.9947 8.85401 15.1338 8.80845C16.2273 8.76289 16.2273 9.81083 16.2273 9.81083" stroke="black" stroke-width="0.888889" stroke-miterlimit="10" stroke-linecap="round" stroke-linejoin="round"/>
<path d="M1.82938 19.8347C1.41931 19.7436 1.05481 19.6069 1.00925 19.3791C0.963684 18.9234 0.872559 17.6477 0.872559 17.0554C0.872559 16.8276 0.918121 16.5542 1.05481 16.3719C1.556 15.4607 3.24182 13.2737 7.84367 13.4559L12.5366 10.3121C12.7644 10.1754 13.0378 10.0843 13.2656 10.0843L22.1959 10.0387C22.3326 10.0387 22.4693 10.0387 22.606 10.0843C23.6084 10.3576 27.9369 11.9068 27.3445 15.8252L27.8457 16.0985C28.0735 16.1897 28.2558 16.4175 28.3014 16.6453C28.4836 17.2832 28.438 17.9666 28.2102 18.6045M19.8267 19.6524L10.4407 19.8347L19.8267 19.6524Z" stroke="black" stroke-width="0.888889" stroke-linecap="round" stroke-linejoin="round"/>
<path d="M9.48389 14.5949L23.2438 14.5038L23.2438 12.4535" stroke="black" stroke-width="0.888889" stroke-linecap="round" stroke-linejoin="round"/>
<path d="M6.02106 21.6571C7.27924 21.6571 8.2992 20.6372 8.2992 19.379C8.2992 18.1208 7.27924 17.1008 6.02106 17.1008C4.76288 17.1008 3.74292 18.1208 3.74292 19.379C3.74292 20.6372 4.76288 21.6571 6.02106 21.6571Z" stroke="black" stroke-width="0.888889" stroke-linecap="round" stroke-linejoin="round"/>
<path d="M24.1551 21.6571C25.4133 21.6571 26.4332 20.6372 26.4332 19.379C26.4332 18.1208 25.4133 17.1008 24.1551 17.1008C22.8969 17.1008 21.877 18.1208 21.877 19.379C21.877 20.6372 22.8969 21.6571 24.1551 21.6571Z" stroke="black" stroke-width="0.888889" stroke-linecap="round" stroke-linejoin="round"/>
<path d="M3.74301 15.9618L2.92288 16.9642L1.23706 16.9186" stroke="black" stroke-width="0.888889" stroke-linecap="round" stroke-linejoin="round"/>
<path d="M9.11938 16.1896L20.9657 16.1896" stroke="black" stroke-width="0.888889" stroke-miterlimit="10" stroke-linecap="round" stroke-linejoin="round"/>
<path d="M9.11938 16.1896L20.9657 16.1896" stroke="#61B2E4" stroke-width="0.933333" stroke-miterlimit="10" stroke-linecap="round" stroke-linejoin="round"/>
</g>
<defs>
<clipPath id="clip0_33_80">
<rect width="29.7297" height="29.7297" fill="white" transform="translate(0.189209 0.607178)"/>
</clipPath>
</defs>
</svg>
