<svg width="84" height="84" viewBox="0 0 84 84" fill="none" xmlns="http://www.w3.org/2000/svg">
<rect y="42" width="59.397" height="59.397" rx="3" transform="rotate(-45 0 42)" fill="#F7BC00"/>
<rect x="3.49414" y="41.9272" width="54.1561" height="54.1561" rx="3" transform="rotate(-45 3.49414 41.9272)" fill="#F7BC00" stroke="black" stroke-width="2"/>
<g clip-path="url(#clip0_62_136)">
<path d="M24.9657 42.7549C24.7077 42.5564 24.7052 42.1682 24.9606 41.9663L37.9554 31.6961C38.3548 31.3805 38.9153 31.7939 38.7318 32.2687L36.9493 36.8794C36.8226 37.2071 37.0644 37.5597 37.4157 37.5597L58.8969 37.5598C59.1731 37.5598 59.3969 37.7836 59.3969 38.0598V45.7946C59.3969 46.0708 59.1731 46.2946 58.8969 46.2946L37.3964 46.2946C37.0504 46.2946 36.809 46.6374 36.9256 46.9631L38.8183 52.2506C38.9865 52.7205 38.4382 53.1197 38.0427 52.8154L24.9657 42.7549Z" fill="#000202"/>
</g>
<defs>
<clipPath id="clip0_62_136">
<rect width="34.9394" height="34.9394" fill="white" transform="translate(24.4575 24.4575)"/>
</clipPath>
</defs>
</svg>
