<svg width="31" height="31" viewBox="0 0 31 31" fill="none" xmlns="http://www.w3.org/2000/svg">
<path d="M28.4188 20.8013L27.0833 20.216C27.074 20.144 27.0624 20.072 27.0438 20.0023C26.9439 19.6144 26.577 19.1429 25.9708 19.0059L25.8477 17.2662L24.547 17.3406L24.7096 19.1917C24.2265 19.4565 24.0035 19.9233 24.0198 20.4599L22.6541 21.5678L23.467 22.5874L24.5656 21.663C24.8396 21.8743 25.1997 22.0509 25.6456 22.0253C26.1821 21.9951 26.5491 21.7164 26.7767 21.433L27.9589 22.0671L28.4188 20.8013Z" fill="#878787"/>
<path d="M25.181 15.7171C22.8932 15.8704 20.8957 17.8399 20.9236 20.3135C20.9538 22.9149 22.949 24.7614 25.476 24.7614C27.9449 24.7614 29.9958 22.9428 29.954 20.1788C29.9099 17.1803 27.5896 15.5545 25.181 15.7171ZM25.5364 22.973C24.1335 22.959 23.0674 21.8488 22.935 20.6387C22.7585 19.0198 23.7735 17.8423 25.2112 17.7261C26.7047 17.6077 27.9449 18.4949 28.1075 20.0906C28.2701 21.6862 27.0136 22.9892 25.5364 22.973ZM10.0188 20.2973C9.77497 17.1873 7.21078 16.1607 5.34803 16.2768C3.22049 16.4115 1.24857 17.9677 1.28341 20.6225C1.31361 22.9567 2.77687 24.7893 5.77075 24.7893C8.1677 24.7916 10.1954 22.5595 10.0188 20.2973ZM5.66623 23.2517C3.86154 23.2842 2.821 22.232 2.80474 20.6527C2.7908 19.1731 4.0009 17.8887 5.52455 17.9328C6.98781 17.9747 8.06551 18.8038 8.24435 20.3414C8.42319 21.879 7.26188 23.2238 5.66623 23.2517Z" fill="#4D453C"/>
<path d="M5.51072 18.4809C4.3285 18.4182 3.2926 19.2334 3.27867 20.7269C3.26473 22.3086 4.6978 22.8544 5.52465 22.8707C6.35151 22.8869 7.65451 22.2807 7.69632 20.8175C7.74277 19.2636 6.89965 18.5529 5.51072 18.4809Z" fill="#858585"/>
<path d="M2.36347 16.7947C2.4494 16.9457 3.4133 16.869 4.1519 17.1942C4.63268 17.4056 5.1576 17.963 5.08327 18.7318C5.00895 19.5006 4.86262 20.209 4.86262 20.209L6.22136 20.6526C6.22136 20.6526 6.75325 19.4565 7.04822 19.1452C7.3432 18.834 8.00979 18.2138 8.9853 18.3462C9.73551 18.4484 10.581 19.129 10.581 19.129C10.581 19.129 10.0491 15.9075 9.98868 15.8773C9.93061 15.8471 7.00409 15.9957 7.00409 15.9957C7.00409 15.9957 5.67322 15.4499 4.31448 15.789C2.95342 16.1304 2.30308 16.6925 2.36347 16.7947Z" fill="#DB0D2A"/>
<path d="M6.72297 15.3918L5.32009 19.6492C5.32009 19.6492 4.78357 19.6516 4.5815 20.3878C4.41891 20.9801 4.8184 21.3633 5.1877 21.4655C5.62436 21.5886 6.18876 21.3935 6.3258 20.8895C6.50232 20.2392 6.14928 19.9442 6.14928 19.8838C6.14928 19.8234 7.71474 15.5103 7.71474 15.5103L6.72297 15.3918Z" fill="#E1D9DC"/>
<path d="M26.8347 12.5188L28.5093 13.9983C28.5093 13.9983 28.8833 13.399 28.8833 13.341C28.8833 13.2806 27.7614 11.8615 27.7614 11.8615L26.8347 12.5188Z" fill="#484D51"/>
<path d="M11.5728 18.769L14.0975 21.6165L19.0098 21.5933L22.0177 20.6968L21.6066 19.0895L19.1724 17.9421C19.1724 17.9421 20.3895 14.4977 20.1363 14.3839C19.8832 14.27 17.0379 12.3632 17.0379 12.3632L11.6424 14.1771L11.5728 18.769Z" fill="#2F2F2F"/>
<path d="M21.8619 14.8925C21.8619 14.8925 21.0304 15.6497 20.5473 16.3209C20.2082 16.7947 20.113 17.3429 20.113 17.3429L20.8237 17.6634C20.8237 17.6634 21.2534 16.6786 22.2591 16.0933C23.4135 15.4197 24.2914 15.5057 24.4285 15.803C24.5655 16.1003 23.9988 16.2001 23.1882 17.0432C22.5913 17.6634 22.2707 18.2603 22.2707 18.2603C22.2707 18.2603 24.958 19.3612 24.958 19.5006C24.958 19.6376 24.4749 21.015 24.4749 21.015L21.4206 20.281C21.4206 20.281 19.4464 19.6841 19.2397 20.281C19.033 20.8779 19.9504 21.2217 19.9504 21.2217L19.1003 21.7721L16.4595 20.6248C16.4595 20.6248 16.3039 19.8954 17.1261 18.2835C18.3687 15.8424 20.2245 14.6091 20.2245 14.6091L21.8619 14.8925Z" fill="#5E6268"/>
<path d="M22.1963 15.0156C22.1963 15.0156 24.4748 14.0378 25.4318 13.6104C26.9299 12.9438 28.4628 12.0845 28.7369 11.9219C29.2316 11.6269 29.2269 11.3505 29.0899 11.2367C28.9529 11.1229 28.5859 11.2832 28.4001 11.3064C28.2143 11.3296 27.6661 11.3528 27.6661 11.3528L23.5574 12.477C23.5574 12.477 20.826 14.1981 20.8933 14.1981C20.9607 14.1981 22.1963 15.0156 22.1963 15.0156Z" fill="#DC0D2A"/>
<path d="M8.15388 14.4977L5.27148 13.9193L6.69758 11.1717L8.2282 9.64104L9.13403 9.31355C9.13403 9.31355 8.36988 10.3285 7.95877 10.9673C7.70328 11.3644 7.43386 12.0171 7.43386 12.0171C7.43386 12.0171 7.75206 11.9474 8.00523 11.9172C8.25839 11.887 8.53943 11.8661 8.53943 11.8661C8.53943 11.8661 8.45582 11.3226 8.57427 11.0416C8.69273 10.7582 8.93893 10.5747 9.11777 10.5585C9.29661 10.5445 9.41507 10.6328 9.41507 10.6328C9.41507 10.6328 9.38952 10.2031 9.429 10.0823C9.50333 9.85937 10.1281 9.59691 10.9016 9.31355C11.6796 9.02786 12.5529 8.63069 12.7875 8.68644C12.9339 8.72128 13.2776 9.38555 13.0988 9.57833C12.9199 9.77111 10.1583 11.0648 10.1583 11.0648L10.6182 12.3283L8.15388 14.4977Z" fill="#464C4F"/>
<path d="M5.57568 10.8325C5.57568 10.8325 7.31534 8.95352 8.23742 8.12899C8.92028 7.51814 9.44519 7.12329 9.64029 7.04897C9.74481 7.00948 10.7552 6.97464 10.8574 7.00484C10.9619 7.03503 11.0664 7.19761 10.9015 7.36252C10.7389 7.5251 10.2233 8.11505 9.75875 8.60281C9.54507 8.82578 9.13396 9.30656 9.13396 9.30656L8.37678 9.5876L6.47454 10.5376L5.57568 10.8325Z" fill="#AEE3FD"/>
<path d="M19.1676 21.4911C19.1746 21.5886 19.2489 21.7048 19.5602 21.6885C19.8714 21.6723 22.9884 21.721 23.3646 21.6397C23.7409 21.5585 28.7787 19.3729 28.8786 19.1754C28.9506 19.0314 28.9622 18.546 28.7276 18.0466C28.4651 17.4892 28.2027 17.2105 27.8589 17.2755C27.5152 17.3406 20.4962 20.6875 19.9713 20.8988C19.4463 21.1125 19.1514 21.2612 19.1676 21.4911Z" fill="#E0E0E0"/>
<path d="M22.856 20.5551C22.9117 20.6875 23.4575 20.6689 24.0916 20.3786C24.7257 20.0883 28.7601 18.114 28.7601 18.114C28.7601 18.114 28.6928 17.9119 28.5743 17.7238C28.4814 17.5775 28.3258 17.4242 28.3258 17.4242C28.3258 17.4242 23.7386 19.7608 23.4808 19.8885C23.1463 20.0557 22.7515 20.3066 22.856 20.5551Z" fill="#FEFEFE"/>
<path d="M17.0007 12.9275C17.0007 12.9275 18.7961 14.6742 19.0539 14.8042C19.3141 14.9343 19.8088 14.9924 20.2222 14.9111C20.6357 14.8298 22.9142 13.1041 23.8943 12.7975C24.8745 12.4909 26.563 12.4444 27.1181 12.1355C27.6732 11.8266 27.6663 11.3528 27.6663 11.3528L22.8445 11.6872C22.8445 11.6872 21.8225 13.3293 19.904 13.2225C18.4292 13.1389 17.3189 11.9009 17.3189 11.9009L17.0007 12.9275Z" fill="#464C4F"/>
<path d="M22.5983 16.314C23.0234 16.5393 23.2255 16.0492 23.1186 15.8309C22.8933 15.371 22.0572 14.0634 21.8435 13.9774C21.667 13.9078 20.71 14.6022 20.6148 14.6742C20.5196 14.7439 20.5544 14.8949 20.7565 15.0412C21.0166 15.2293 22.2685 16.1398 22.5983 16.314Z" fill="#C8C8C8"/>
<path d="M13.1706 14.0842L16.9263 13.9471L17.6579 14.7113L15.2006 16.2373L12.8199 15.6566L12.6062 14.1771L13.1706 14.0842Z" fill="#464C4F"/>
<path d="M11.568 16.4347L9.59143 18.5924C9.59143 18.5924 10.3161 19.8792 10.5158 20.4319C10.7249 21.008 11.0199 22.0485 11.0199 22.0485C11.0199 22.0485 18.5127 22.2622 18.8634 22.2157C19.2141 22.1693 19.6113 21.7582 19.4278 21.5909C19.2443 21.4237 16.3898 20.2485 16.3898 20.2485C16.3898 20.2485 14.1461 20.4017 13.7791 20.2647C13.4122 20.1277 12.216 18.4786 12.281 18.3532C12.439 18.042 15.3516 16.1444 15.3516 16.1444L15.1077 15.8842L12.864 15.3802L13.0011 14.4651C13.0011 14.4651 14.0091 13.6568 14.1299 13.6568C14.2506 13.6568 15.4584 13.4594 16.1297 13.3061C16.8009 13.1528 17.6254 12.9693 17.8229 12.8625C18.0203 12.7556 18.1666 12.5722 18.1132 12.2818C18.0714 12.0635 17.5023 11.8707 17.5023 11.8707L11.6121 11.5339L10.402 11.6617C10.402 11.6617 10.2394 12.2052 9.36846 12.7394C8.49747 13.2736 7.01563 13.6197 7.01563 13.6197L11.568 16.4347Z" fill="#DC0D2A"/>
<path d="M9.11297 9.31116C9.11297 9.31116 7.1364 9.64329 5.79392 10.6513C4.45144 11.6593 3.93117 13.6893 3.90097 13.8867C3.87078 14.0842 3.61529 14.7415 4.1193 15.0574C4.36318 15.2106 4.84861 15.1386 5.36655 15.2617C5.79624 15.3616 6.76943 15.6891 7.51732 16.3604C8.26521 17.0316 9.59375 18.604 9.59375 18.604L15.1077 15.8865C15.1077 15.8865 13.5167 14.0261 9.83763 13.7822C6.15857 13.5384 5.77766 13.6289 5.77766 13.6289C5.77766 13.6289 6.23987 12.3004 6.89253 11.4317C7.76352 10.2704 9.11297 9.31116 9.11297 9.31116Z" fill="#FE2A22"/>
<path d="M10.3997 11.6664C10.3997 11.6664 11.4913 12.5908 13.4609 12.758C15.4305 12.9253 17.5046 11.8731 17.5046 11.8731C17.5046 11.8731 14.1832 10.3355 13.7814 10.3634C13.3494 10.3913 10.4159 11.5735 10.3997 11.6664Z" fill="#FE2A22"/>
<path d="M4.50726 12.2586C4.50726 12.2586 5.75916 12.2517 5.76845 12.3028C5.77774 12.3538 5.30857 13.5407 5.30857 13.5407C5.30857 13.5407 3.8755 14.284 3.83137 14.2747C3.78724 14.2654 3.82208 13.6359 4.00789 13.125C4.19371 12.614 4.50726 12.2586 4.50726 12.2586Z" fill="#D9E3DF"/>
<path d="M5.01583 10.0846C5.0739 10.2936 5.94256 10.9486 6.50696 10.8975C7.02491 10.8511 6.93665 9.88718 6.932 9.65028C6.92504 9.17181 6.88323 8.76767 6.85536 8.51683C6.82516 8.24276 6.59754 8.21256 6.43728 8.34263C6.27702 8.47038 4.95312 9.86396 5.01583 10.0846ZM14.4109 18.5762C14.4109 18.5762 14.0555 17.5821 14.8917 17.0084C15.5234 16.5741 16.3247 16.6321 16.8682 17.3545C17.4117 18.0768 16.9263 18.9246 16.6383 19.1638C15.6976 19.9488 14.8406 19.2056 14.8406 19.2056C14.8406 19.2056 14.8963 19.6144 14.527 19.8954C14.2646 20.0952 13.6073 20.1532 13.3355 19.6539C13.0429 19.115 13.3425 18.7155 13.6491 18.546C14.0439 18.3253 14.4109 18.5762 14.4109 18.5762Z" fill="#464C4F"/>
</svg>
