<svg width="84" height="84" viewBox="0 0 84 84" fill="none" xmlns="http://www.w3.org/2000/svg">
<rect width="59.397" height="59.397" rx="3" transform="matrix(-0.707107 -0.707107 -0.707107 0.707107 84 42)" fill="#F7BC00"/>
<rect width="54.1561" height="54.1561" rx="3" transform="matrix(-0.707107 -0.707107 -0.707107 0.707107 80.5061 41.9272)" fill="#F7BC00" stroke="black" stroke-width="2"/>
<g clip-path="url(#clip0_64_140)">
<path d="M59.0343 42.7549C59.2923 42.5564 59.2948 42.1682 59.0394 41.9663L46.0446 31.6961C45.6452 31.3805 45.0847 31.7939 45.2682 32.2687L47.0507 36.8794C47.1774 37.2071 46.9356 37.5597 46.5843 37.5597L25.1031 37.5598C24.8269 37.5598 24.6031 37.7836 24.6031 38.0598V45.7946C24.6031 46.0708 24.8269 46.2946 25.1031 46.2946L46.6036 46.2946C46.9496 46.2946 47.191 46.6374 47.0744 46.9631L45.1817 52.2506C45.0135 52.7205 45.5618 53.1197 45.9573 52.8154L59.0343 42.7549Z" fill="#000202"/>
</g>
<defs>
<clipPath id="clip0_64_140">
<rect width="34.9394" height="34.9394" fill="white" transform="matrix(-1 0 0 1 59.5425 24.4575)"/>
</clipPath>
</defs>
</svg>
